<svg width="32" height="32" viewBox="0 0 32 32" fill="none" xmlns="http://www.w3.org/2000/svg" role="img" aria-labelledby="logo-title logo-desc">
  <title id="logo-title">Sistema de Gestión de Inventarios</title>
  <desc id="logo-desc">Logo del sistema de gestión de inventarios con icono de almacén</desc>
  
  <!-- Fondo circular con gradiente -->
  <defs>
    <linearGradient id="logo-gradient" x1="0%" y1="0%" x2="100%" y2="100%">
      <stop offset="0%" style="stop-color:#0ea5e9;stop-opacity:1" />
      <stop offset="100%" style="stop-color:#0284c7;stop-opacity:1" />
    </linearGradient>
    <linearGradient id="logo-gradient-dark" x1="0%" y1="0%" x2="100%" y2="100%">
      <stop offset="0%" style="stop-color:#38bdf8;stop-opacity:1" />
      <stop offset="100%" style="stop-color:#0ea5e9;stop-opacity:1" />
    </linearGradient>
  </defs>
  
  <!-- Círculo de fondo -->
  <circle cx="16" cy="16" r="16" fill="url(#logo-gradient)"/>
  
  <!-- Icono principal: edificio de almacén -->
  <g transform="translate(6, 6)" fill="white">
    <!-- Base del edificio -->
    <rect x="2" y="8" width="16" height="12" rx="2" fill="white" fill-opacity="0.9"/>
    
    <!-- Techo -->
    <path d="M1 10 L6 6 L10 9 L16 4 L21 9 L25 6 L30 10 L30 20 L1 20 Z" fill="white" fill-opacity="0.95"/>
    
    <!-- Puerta principal -->
    <rect x="12" y="14" width="6" height="6" rx="1" fill="white" fill-opacity="0.8"/>
    <circle cx="16" cy="17" r="0.5" fill="white" fill-opacity="0.6"/>
    
    <!-- Ventanas -->
    <rect x="4" y="12" width="2" height="2" rx="0.5" fill="white" fill-opacity="0.7"/>
    <rect x="22" y="12" width="2" height="2" rx="0.5" fill="white" fill-opacity="0.7"/>
    
    <!-- Caja/flete -->
    <rect x="6" y="16" width="3" height="2" rx="0.5" fill="white" fill-opacity="0.6"/>
    <rect x="21" y="16" width="3" height="2" rx="0.5" fill="white" fill-opacity="0.6"/>
    
    <!-- Flecha de inventario -->
    <path d="M10 5 L14 2 L18 5 L17 4 L16 6 L15 4 Z" fill="white" fill-opacity="0.9"/>
  </g>
</svg>